<svg width="253" height="24" viewBox="0 0 253 24" fill="none" xmlns="http://www.w3.org/2000/svg">
<path d="M20.9435 8.46591H15.9663C15.8754 7.82197 15.6897 7.25 15.4094 6.75C15.1291 6.24243 14.7693 5.81061 14.3299 5.45455C13.8905 5.09849 13.3829 4.82576 12.8072 4.63637C12.239 4.44697 11.6216 4.35228 10.9549 4.35228C9.75036 4.35228 8.70111 4.65152 7.80717 5.25C6.91323 5.84091 6.22005 6.70455 5.72763 7.84091C5.2352 8.9697 4.98899 10.3409 4.98899 11.9545C4.98899 13.6136 5.2352 15.0076 5.72763 16.1364C6.22763 17.2652 6.9246 18.1174 7.81854 18.6932C8.71248 19.2689 9.74657 19.5568 10.9208 19.5568C11.5799 19.5568 12.1897 19.4697 12.7504 19.2955C13.3185 19.1212 13.8223 18.8674 14.2617 18.5341C14.7011 18.1932 15.0648 17.7803 15.3526 17.2955C15.6481 16.8106 15.8526 16.2576 15.9663 15.6364L20.9435 15.6591C20.8148 16.7273 20.4928 17.7576 19.9776 18.75C19.4701 19.7349 18.7844 20.6174 17.9208 21.3977C17.0647 22.1705 16.042 22.7841 14.8526 23.2386C13.6708 23.6856 12.3337 23.9091 10.8413 23.9091C8.76551 23.9091 6.90945 23.4394 5.27308 22.5C3.64429 21.5606 2.35642 20.2008 1.40945 18.4205C0.470052 16.6402 0.000355124 14.4849 0.000355124 11.9545C0.000355124 9.41667 0.477628 7.25758 1.43217 5.47728C2.38672 3.69697 3.68217 2.34091 5.31854 1.40909C6.9549 0.469699 8.79581 1.90735e-06 10.8413 1.90735e-06C12.1897 1.90735e-06 13.4397 0.189396 14.5913 0.568184C15.7504 0.946972 16.7769 1.5 17.6708 2.22727C18.5647 2.94697 19.292 3.82955 19.8526 4.875C20.4208 5.92046 20.7844 7.11743 20.9435 8.46591ZM24.4719 23.5909V0.318184H29.3924V9.92046H39.381V0.318184H44.2901V23.5909H39.381V13.9773H29.3924V23.5909H24.4719ZM62.7219 0.318184H67.6424V15.4318C67.6424 17.1288 67.2371 18.6136 66.4265 19.8864C65.6235 21.1591 64.4985 22.1515 63.0515 22.8636C61.6045 23.5682 59.9189 23.9205 57.9947 23.9205C56.0629 23.9205 54.3735 23.5682 52.9265 22.8636C51.4795 22.1515 50.3545 21.1591 49.5515 19.8864C48.7485 18.6136 48.3469 17.1288 48.3469 15.4318V0.318184H53.2674V15.0114C53.2674 15.8977 53.4606 16.6856 53.8469 17.375C54.2409 18.0644 54.7939 18.6061 55.506 19C56.2182 19.3939 57.0477 19.5909 57.9947 19.5909C58.9492 19.5909 59.7788 19.3939 60.4833 19C61.1954 18.6061 61.7447 18.0644 62.131 17.375C62.525 16.6856 62.7219 15.8977 62.7219 15.0114V0.318184ZM71.6907 23.5909V0.318184H80.8725C82.6301 0.318184 84.1301 0.632578 85.3725 1.26137C86.6225 1.88258 87.5733 2.76515 88.2248 3.90909C88.8839 5.04546 89.2134 6.38258 89.2134 7.92046C89.2134 9.46591 88.8801 10.7955 88.2134 11.9091C87.5468 13.0152 86.5808 13.8636 85.3157 14.4545C84.0581 15.0455 82.5354 15.3409 80.7475 15.3409H74.5998V11.3864H79.9521C80.8915 11.3864 81.6718 11.2576 82.293 11C82.9142 10.7424 83.3763 10.3561 83.6793 9.84091C83.9899 9.32576 84.1452 8.68561 84.1452 7.92046C84.1452 7.14773 83.9899 6.49621 83.6793 5.96591C83.3763 5.43561 82.9104 5.03409 82.2816 4.76137C81.6604 4.48106 80.8763 4.34091 79.9293 4.34091H76.6112V23.5909H71.6907ZM84.2589 13L90.043 23.5909H84.6112L78.9521 13H84.2589ZM112.157 0.318184V23.5909H107.907L97.7816 8.94318H97.6112V23.5909H92.6907V0.318184H97.0089L107.054 14.9545H107.259V0.318184H112.157ZM128.549 0.318184V23.5909H123.628V0.318184H128.549ZM152.063 0.318184V23.5909H147.813L137.688 8.94318H137.517V23.5909H132.597V0.318184H136.915L146.961 14.9545H147.165V0.318184H152.063ZM168.753 7.01137C168.662 6.0947 168.272 5.38258 167.583 4.875C166.893 4.36743 165.958 4.11364 164.776 4.11364C163.973 4.11364 163.295 4.22727 162.742 4.45455C162.189 4.67425 161.765 4.98106 161.469 5.375C161.181 5.76894 161.037 6.21591 161.037 6.71591C161.022 7.13258 161.109 7.49621 161.299 7.80682C161.496 8.11743 161.765 8.38637 162.105 8.61364C162.446 8.83334 162.84 9.02652 163.287 9.19318C163.734 9.35228 164.212 9.48864 164.719 9.60227L166.81 10.1023C167.825 10.3295 168.757 10.6326 169.605 11.0114C170.454 11.3902 171.189 11.8561 171.81 12.4091C172.431 12.9621 172.912 13.6136 173.253 14.3636C173.602 15.1136 173.78 15.9735 173.787 16.9432C173.78 18.3674 173.416 19.6023 172.696 20.6477C171.984 21.6856 170.954 22.4924 169.605 23.0682C168.265 23.6364 166.647 23.9205 164.753 23.9205C162.874 23.9205 161.238 23.6326 159.844 23.0568C158.458 22.4811 157.374 21.6288 156.594 20.5C155.821 19.3636 155.416 17.9583 155.378 16.2841H160.14C160.193 17.0644 160.416 17.7159 160.81 18.2386C161.212 18.7538 161.746 19.1439 162.412 19.4091C163.087 19.6667 163.848 19.7955 164.696 19.7955C165.53 19.7955 166.253 19.6742 166.867 19.4318C167.488 19.1894 167.969 18.8523 168.31 18.4205C168.651 17.9886 168.821 17.4924 168.821 16.9318C168.821 16.4091 168.666 15.9697 168.355 15.6136C168.052 15.2576 167.605 14.9545 167.015 14.7045C166.431 14.4545 165.715 14.2273 164.867 14.0227L162.333 13.3864C160.371 12.9091 158.821 12.1629 157.685 11.1477C156.549 10.1326 155.984 8.76515 155.992 7.04546C155.984 5.63637 156.359 4.40531 157.117 3.35228C157.882 2.29925 158.931 1.47728 160.265 0.886366C161.598 0.295457 163.113 1.90735e-06 164.81 1.90735e-06C166.537 1.90735e-06 168.045 0.295457 169.333 0.886366C170.628 1.47728 171.636 2.29925 172.355 3.35228C173.075 4.40531 173.446 5.625 173.469 7.01137H168.753ZM182.017 0.318184V23.5909H177.097V0.318184H182.017ZM201.498 7.84091C201.338 7.28788 201.115 6.79924 200.827 6.375C200.539 5.94318 200.187 5.57955 199.77 5.28409C199.361 4.98106 198.891 4.75 198.361 4.59091C197.838 4.43182 197.259 4.35228 196.623 4.35228C195.433 4.35228 194.388 4.64773 193.486 5.23864C192.592 5.82955 191.895 6.6894 191.395 7.81818C190.895 8.9394 190.645 10.3106 190.645 11.9318C190.645 13.553 190.891 14.9318 191.384 16.0682C191.876 17.2045 192.573 18.072 193.475 18.6705C194.376 19.2614 195.441 19.5568 196.668 19.5568C197.782 19.5568 198.732 19.3599 199.52 18.9659C200.316 18.5644 200.922 18 201.338 17.2727C201.763 16.5455 201.975 15.6856 201.975 14.6932L202.975 14.8409H196.975V11.1364H206.713V14.0682C206.713 16.1136 206.282 17.8712 205.418 19.3409C204.554 20.803 203.365 21.9318 201.85 22.7273C200.335 23.5152 198.6 23.9091 196.645 23.9091C194.463 23.9091 192.547 23.428 190.895 22.4659C189.244 21.4962 187.956 20.1212 187.032 18.3409C186.115 16.553 185.657 14.4318 185.657 11.9773C185.657 10.0909 185.929 8.40909 186.475 6.93182C187.028 5.44697 187.801 4.1894 188.793 3.15909C189.785 2.12879 190.941 1.3447 192.259 0.80682C193.577 0.268941 195.005 1.90735e-06 196.543 1.90735e-06C197.861 1.90735e-06 199.088 0.193184 200.225 0.579548C201.361 0.958336 202.369 1.49621 203.248 2.19318C204.134 2.89015 204.857 3.7197 205.418 4.68182C205.979 5.63637 206.338 6.6894 206.498 7.84091H201.498ZM210.409 23.5909V0.318184H215.33V9.92046H225.319V0.318184H230.228V23.5909H225.319V13.9773H215.33V23.5909H210.409ZM233.398 4.375V0.318184H252.512V4.375H245.387V23.5909H240.523V4.375H233.398Z" fill="url(#paint0_linear_2005_20)"/>
<defs>
<linearGradient id="paint0_linear_2005_20" x1="-1.61328" y1="12.0909" x2="254.387" y2="12.0909" gradientUnits="userSpaceOnUse">
<stop stop-color="#0077FF"/>
<stop offset="1" stop-color="#39EA29"/>
</linearGradient>
</defs>
</svg>
